<svg width="512" height="512" viewBox="0 0 512 512" xmlns="http://www.w3.org/2000/svg" role="img" aria-label="Lingxi Ge icon">
  <defs>
    <radialGradient id="bgGlow" cx="50%" cy="38%" r="72%">
      <stop offset="0%" stop-color="#3b2756"/>
      <stop offset="48%" stop-color="#170b25"/>
      <stop offset="100%" stop-color="#07040d"/>
    </radialGradient>
    <linearGradient id="gold" x1="112" y1="72" x2="398" y2="438" gradientUnits="userSpaceOnUse">
      <stop offset="0%" stop-color="#fff2b4"/>
      <stop offset="42%" stop-color="#f2cc6d"/>
      <stop offset="100%" stop-color="#a6792e"/>
    </linearGradient>
    <filter id="softGold" x="-20%" y="-20%" width="140%" height="140%">
      <feGaussianBlur stdDeviation="6" result="blur"/>
      <feColorMatrix in="blur" type="matrix" values="1 0 0 0 0.95 0 1 0 0 0.68 0 0 1 0 0.18 0 0 0 0.75 0"/>
      <feMerge>
        <feMergeNode/>
        <feMergeNode in="SourceGraphic"/>
      </feMerge>
    </filter>
    <filter id="shadow" x="-18%" y="-18%" width="136%" height="136%">
      <feDropShadow dx="0" dy="18" stdDeviation="24" flood-color="#000000" flood-opacity="0.38"/>
    </filter>
  </defs>

  <rect width="512" height="512" rx="112" fill="url(#bgGlow)"/>
  <circle cx="256" cy="256" r="202" fill="none" stroke="#f1d276" stroke-width="4" opacity="0.26"/>
  <circle cx="256" cy="256" r="160" fill="none" stroke="#f1d276" stroke-width="2" opacity="0.13"/>
  <path d="M92 326c55-31 99-33 158-8 70 30 120 22 174-23" fill="none" stroke="#f3d986" stroke-width="3" opacity="0.18"/>
  <path d="M104 194c42 22 83 21 126-4 61-35 116-31 178 13" fill="none" stroke="#f3d986" stroke-width="2" opacity="0.13"/>

  <g fill="#fff3ba" opacity="0.9">
    <circle cx="132" cy="130" r="4"/>
    <circle cx="388" cy="136" r="3"/>
    <circle cx="406" cy="358" r="4"/>
    <circle cx="118" cy="376" r="3"/>
    <circle cx="352" cy="80" r="2.5"/>
  </g>
  <path d="M412 88v34M395 105h34" stroke="#f7da85" stroke-width="10" stroke-linecap="round" opacity="0.9"/>
  <path d="M98 262v24M86 274h24" stroke="#f7da85" stroke-width="8" stroke-linecap="round" opacity="0.72"/>

  <g filter="url(#shadow)">
    <circle cx="256" cy="256" r="132" fill="url(#gold)"/>
    <circle cx="256" cy="256" r="122" fill="none" stroke="#fff1b6" stroke-width="5" opacity="0.55"/>
  </g>

  <text
    x="256"
    y="314"
    text-anchor="middle"
    font-size="196"
    font-family="'Microsoft YaHei', 'PingFang SC', 'Noto Sans CJK SC', sans-serif"
    font-weight="800"
    fill="#1a1024"
    filter="url(#softGold)"
  >灵</text>
</svg>
